<svg xmlns="http://www.w3.org/2000/svg" xmlns:xlink="http://www.w3.org/1999/xlink" width="227" zoomAndPan="magnify" viewBox="0 0 170.25 37.5" height="50" preserveAspectRatio="xMidYMid meet" version="1.0"><defs><g/><clipPath id="0ba79ee35a"><path d="M 32 7 L 57.738281 7 L 57.738281 32.308594 L 32 32.308594 Z M 32 7 " clip-rule="nonzero"/></clipPath><clipPath id="0943006f59"><path d="M 4.449219 10 L 8 10 L 8 15 L 4.449219 15 Z M 4.449219 10 " clip-rule="nonzero"/></clipPath><clipPath id="d34f6182e1"><path d="M 14 7 L 33 7 L 33 32.308594 L 14 32.308594 Z M 14 7 " clip-rule="nonzero"/></clipPath></defs><g fill="#000000" fill-opacity="1"><g transform="translate(60.752705, 26.064846)"><g><path d="M 10.09375 -15.65625 L 10.296875 -15.65625 C 10.429688 -15.65625 10.535156 -15.609375 10.609375 -15.515625 C 10.691406 -15.429688 10.734375 -15.332031 10.734375 -15.21875 L 10.734375 -0.453125 C 10.734375 -0.328125 10.691406 -0.21875 10.609375 -0.125 C 10.535156 -0.0390625 10.429688 0 10.296875 0 L 10.09375 0 C 9.96875 0 9.859375 -0.0390625 9.765625 -0.125 C 9.679688 -0.21875 9.640625 -0.328125 9.640625 -0.453125 L 9.640625 -15.21875 C 9.640625 -15.332031 9.679688 -15.429688 9.765625 -15.515625 C 9.859375 -15.609375 9.96875 -15.65625 10.09375 -15.65625 Z M 1.484375 -15.65625 L 1.671875 -15.65625 C 1.804688 -15.65625 1.914062 -15.609375 2 -15.515625 C 2.082031 -15.429688 2.125 -15.332031 2.125 -15.21875 L 2.125 -0.453125 C 2.125 -0.328125 2.082031 -0.21875 2 -0.125 C 1.914062 -0.0390625 1.804688 0 1.671875 0 L 1.484375 0 C 1.359375 0 1.25 -0.0390625 1.15625 -0.125 C 1.070312 -0.21875 1.03125 -0.328125 1.03125 -0.453125 L 1.03125 -15.21875 C 1.03125 -15.332031 1.070312 -15.429688 1.15625 -15.515625 C 1.25 -15.609375 1.359375 -15.65625 1.484375 -15.65625 Z M 3.015625 -8.796875 L 8.796875 -8.796875 C 8.910156 -8.796875 9.007812 -8.75 9.09375 -8.65625 C 9.1875 -8.570312 9.234375 -8.46875 9.234375 -8.34375 L 9.234375 -8.125 C 9.234375 -8 9.1875 -7.890625 9.09375 -7.796875 C 9.007812 -7.710938 8.910156 -7.671875 8.796875 -7.671875 L 3.015625 -7.671875 C 2.898438 -7.671875 2.796875 -7.710938 2.703125 -7.796875 C 2.617188 -7.890625 2.578125 -8 2.578125 -8.125 L 2.578125 -8.34375 C 2.578125 -8.46875 2.617188 -8.570312 2.703125 -8.65625 C 2.796875 -8.75 2.898438 -8.796875 3.015625 -8.796875 Z M 3.015625 -8.796875 "/></g></g></g><g fill="#000000" fill-opacity="1"><g transform="translate(72.990676, 26.064846)"><g><path d="M 5.5 -15.078125 C 5.632812 -15.484375 5.921875 -15.6875 6.359375 -15.6875 C 6.804688 -15.6875 7.101562 -15.476562 7.25 -15.0625 L 12.390625 -0.609375 C 12.410156 -0.554688 12.421875 -0.503906 12.421875 -0.453125 C 12.421875 -0.148438 12.269531 0 11.96875 0 L 11.703125 0 C 11.503906 0 11.363281 -0.0976562 11.28125 -0.296875 L 6.40625 -14.1875 L 1.5 -0.296875 C 1.40625 -0.0976562 1.265625 0 1.078125 0 L 0.8125 0 C 0.507812 0 0.359375 -0.148438 0.359375 -0.453125 C 0.359375 -0.503906 0.363281 -0.554688 0.375 -0.609375 Z M 4.453125 -6.890625 L 8.328125 -6.890625 C 8.441406 -6.890625 8.539062 -6.847656 8.625 -6.765625 C 8.71875 -6.679688 8.765625 -6.570312 8.765625 -6.4375 L 8.765625 -6.25 C 8.765625 -6.113281 8.71875 -6.003906 8.625 -5.921875 C 8.539062 -5.835938 8.441406 -5.796875 8.328125 -5.796875 L 4.453125 -5.796875 C 4.171875 -5.796875 4.03125 -5.945312 4.03125 -6.25 L 4.03125 -6.4375 C 4.03125 -6.738281 4.171875 -6.890625 4.453125 -6.890625 Z M 4.453125 -6.890625 "/></g></g></g><g fill="#000000" fill-opacity="1"><g transform="translate(86.145936, 26.064846)"><g><path d="M 1.90625 -12.109375 C 1.90625 -13.078125 2.300781 -13.914062 3.09375 -14.625 C 3.882812 -15.34375 4.960938 -15.703125 6.328125 -15.703125 C 7.691406 -15.703125 8.835938 -15.335938 9.765625 -14.609375 C 10.703125 -13.890625 11.195312 -12.816406 11.25 -11.390625 C 11.25 -11.265625 11.203125 -11.15625 11.109375 -11.0625 C 11.023438 -10.96875 10.925781 -10.921875 10.8125 -10.921875 L 10.578125 -10.921875 C 10.472656 -10.921875 10.375 -10.960938 10.28125 -11.046875 C 10.195312 -11.128906 10.148438 -11.226562 10.140625 -11.34375 C 10.085938 -12.476562 9.703125 -13.300781 8.984375 -13.8125 C 8.273438 -14.332031 7.421875 -14.59375 6.421875 -14.59375 C 5.347656 -14.59375 4.507812 -14.34375 3.90625 -13.84375 C 3.3125 -13.351562 3.015625 -12.742188 3.015625 -12.015625 C 3.015625 -11.296875 3.222656 -10.722656 3.640625 -10.296875 C 4.222656 -9.710938 5.304688 -9.113281 6.890625 -8.5 C 8.765625 -7.757812 10.019531 -7.015625 10.65625 -6.265625 C 11.125 -5.703125 11.359375 -4.890625 11.359375 -3.828125 C 11.359375 -2.765625 10.929688 -1.859375 10.078125 -1.109375 C 9.222656 -0.359375 8.003906 0.015625 6.421875 0.015625 C 5.242188 0.015625 4.132812 -0.300781 3.09375 -0.9375 C 2.539062 -1.28125 2.085938 -1.757812 1.734375 -2.375 C 1.378906 -3 1.1875 -3.710938 1.15625 -4.515625 C 1.15625 -4.828125 1.304688 -4.984375 1.609375 -4.984375 L 1.8125 -4.984375 C 2.082031 -4.984375 2.234375 -4.84375 2.265625 -4.5625 C 2.285156 -3.90625 2.445312 -3.332031 2.75 -2.84375 C 3.050781 -2.363281 3.425781 -2.003906 3.875 -1.765625 C 4.738281 -1.304688 5.6875 -1.078125 6.71875 -1.078125 C 7.757812 -1.078125 8.609375 -1.347656 9.265625 -1.890625 C 9.929688 -2.429688 10.265625 -3.113281 10.265625 -3.9375 C 10.265625 -4.769531 10 -5.410156 9.46875 -5.859375 C 9.03125 -6.222656 8.5625 -6.53125 8.0625 -6.78125 C 7.40625 -7.09375 6.375 -7.53125 4.96875 -8.09375 C 3.894531 -8.570312 3.113281 -9.117188 2.625 -9.734375 C 2.144531 -10.359375 1.90625 -11.148438 1.90625 -12.109375 Z M 1.90625 -12.109375 "/></g></g></g><g fill="#000000" fill-opacity="1"><g transform="translate(98.607638, 26.064846)"><g><path d="M 10.09375 -15.65625 L 10.296875 -15.65625 C 10.429688 -15.65625 10.535156 -15.609375 10.609375 -15.515625 C 10.691406 -15.429688 10.734375 -15.332031 10.734375 -15.21875 L 10.734375 -0.453125 C 10.734375 -0.328125 10.691406 -0.21875 10.609375 -0.125 C 10.535156 -0.0390625 10.429688 0 10.296875 0 L 10.09375 0 C 9.96875 0 9.859375 -0.0390625 9.765625 -0.125 C 9.679688 -0.21875 9.640625 -0.328125 9.640625 -0.453125 L 9.640625 -15.21875 C 9.640625 -15.332031 9.679688 -15.429688 9.765625 -15.515625 C 9.859375 -15.609375 9.96875 -15.65625 10.09375 -15.65625 Z M 1.484375 -15.65625 L 1.671875 -15.65625 C 1.804688 -15.65625 1.914062 -15.609375 2 -15.515625 C 2.082031 -15.429688 2.125 -15.332031 2.125 -15.21875 L 2.125 -0.453125 C 2.125 -0.328125 2.082031 -0.21875 2 -0.125 C 1.914062 -0.0390625 1.804688 0 1.671875 0 L 1.484375 0 C 1.359375 0 1.25 -0.0390625 1.15625 -0.125 C 1.070312 -0.21875 1.03125 -0.328125 1.03125 -0.453125 L 1.03125 -15.21875 C 1.03125 -15.332031 1.070312 -15.429688 1.15625 -15.515625 C 1.25 -15.609375 1.359375 -15.65625 1.484375 -15.65625 Z M 3.015625 -8.796875 L 8.796875 -8.796875 C 8.910156 -8.796875 9.007812 -8.75 9.09375 -8.65625 C 9.1875 -8.570312 9.234375 -8.46875 9.234375 -8.34375 L 9.234375 -8.125 C 9.234375 -8 9.1875 -7.890625 9.09375 -7.796875 C 9.007812 -7.710938 8.910156 -7.671875 8.796875 -7.671875 L 3.015625 -7.671875 C 2.898438 -7.671875 2.796875 -7.710938 2.703125 -7.796875 C 2.617188 -7.890625 2.578125 -8 2.578125 -8.125 L 2.578125 -8.34375 C 2.578125 -8.46875 2.617188 -8.570312 2.703125 -8.65625 C 2.796875 -8.75 2.898438 -8.796875 3.015625 -8.796875 Z M 3.015625 -8.796875 "/></g></g></g><g fill="#000000" fill-opacity="1"><g transform="translate(110.845611, 26.064846)"><g><path d="M 3.703125 -15.21875 C 4.234375 -15.46875 4.703125 -15.625 5.109375 -15.6875 C 5.523438 -15.757812 5.925781 -15.796875 6.3125 -15.796875 C 6.707031 -15.796875 7.109375 -15.757812 7.515625 -15.6875 C 7.921875 -15.625 8.363281 -15.484375 8.84375 -15.265625 C 9.332031 -15.054688 9.769531 -14.78125 10.15625 -14.4375 C 10.539062 -14.101562 10.882812 -13.640625 11.1875 -13.046875 C 11.488281 -12.460938 11.675781 -11.785156 11.75 -11.015625 C 11.75 -10.679688 11.597656 -10.515625 11.296875 -10.515625 L 11.09375 -10.515625 C 10.820312 -10.515625 10.675781 -10.648438 10.65625 -10.921875 C 10.570312 -11.546875 10.410156 -12.097656 10.171875 -12.578125 C 9.941406 -13.054688 9.671875 -13.421875 9.359375 -13.671875 C 9.046875 -13.921875 8.6875 -14.128906 8.28125 -14.296875 C 7.6875 -14.546875 7.128906 -14.671875 6.609375 -14.671875 C 6.097656 -14.671875 5.671875 -14.640625 5.328125 -14.578125 C 4.992188 -14.523438 4.617188 -14.398438 4.203125 -14.203125 C 3.785156 -14.015625 3.421875 -13.757812 3.109375 -13.4375 C 2.796875 -13.113281 2.53125 -12.660156 2.3125 -12.078125 C 2.09375 -11.492188 1.984375 -10.820312 1.984375 -10.0625 L 1.984375 -5.6875 C 1.984375 -4.925781 2.101562 -4.253906 2.34375 -3.671875 C 2.582031 -3.085938 2.867188 -2.632812 3.203125 -2.3125 C 3.546875 -1.988281 3.941406 -1.734375 4.390625 -1.546875 C 5.097656 -1.234375 5.765625 -1.078125 6.390625 -1.078125 C 7.023438 -1.078125 7.5625 -1.128906 8 -1.234375 C 8.4375 -1.347656 8.875 -1.546875 9.3125 -1.828125 C 10.226562 -2.410156 10.6875 -3.492188 10.6875 -5.078125 C 10.6875 -5.328125 10.726562 -5.488281 10.8125 -5.5625 C 10.894531 -5.644531 11.003906 -5.6875 11.140625 -5.6875 L 11.328125 -5.6875 C 11.617188 -5.6875 11.765625 -5.535156 11.765625 -5.234375 C 11.765625 -4.328125 11.617188 -3.53125 11.328125 -2.84375 C 11.035156 -2.15625 10.695312 -1.632812 10.3125 -1.28125 C 9.925781 -0.9375 9.472656 -0.660156 8.953125 -0.453125 C 8.140625 -0.140625 7.429688 0.015625 6.828125 0.015625 C 6.222656 0.015625 5.703125 -0.0195312 5.265625 -0.09375 C 4.828125 -0.164062 4.332031 -0.328125 3.78125 -0.578125 C 3.238281 -0.835938 2.765625 -1.160156 2.359375 -1.546875 C 1.953125 -1.929688 1.601562 -2.476562 1.3125 -3.1875 C 1.03125 -3.894531 0.890625 -4.703125 0.890625 -5.609375 L 0.890625 -10.15625 C 0.890625 -11.09375 1.023438 -11.921875 1.296875 -12.640625 C 1.578125 -13.359375 1.914062 -13.90625 2.3125 -14.28125 C 2.707031 -14.664062 3.171875 -14.976562 3.703125 -15.21875 Z M 3.703125 -15.21875 "/></g></g></g><g fill="#000000" fill-opacity="1"><g transform="translate(123.463922, 26.064846)"><g><path d="M 3.90625 -15.140625 C 4.445312 -15.367188 4.914062 -15.507812 5.3125 -15.5625 C 5.71875 -15.625 6.132812 -15.65625 6.5625 -15.65625 C 6.988281 -15.65625 7.410156 -15.625 7.828125 -15.5625 C 8.242188 -15.5 8.71875 -15.347656 9.25 -15.109375 C 9.78125 -14.867188 10.238281 -14.554688 10.625 -14.171875 C 11.007812 -13.796875 11.335938 -13.257812 11.609375 -12.5625 C 11.878906 -11.863281 12.015625 -11.0625 12.015625 -10.15625 L 12.015625 -5.609375 C 12.015625 -4.671875 11.875 -3.84375 11.59375 -3.125 C 11.320312 -2.414062 10.988281 -1.863281 10.59375 -1.46875 C 10.195312 -1.082031 9.738281 -0.769531 9.21875 -0.53125 C 8.382812 -0.164062 7.503906 0.015625 6.578125 0.015625 C 5.609375 0.015625 4.785156 -0.144531 4.109375 -0.46875 C 3.429688 -0.800781 2.894531 -1.160156 2.5 -1.546875 C 2.113281 -1.929688 1.785156 -2.476562 1.515625 -3.1875 C 1.253906 -3.894531 1.125 -4.703125 1.125 -5.609375 L 1.125 -10.15625 C 1.125 -11.09375 1.257812 -11.910156 1.53125 -12.609375 C 1.8125 -13.316406 2.144531 -13.859375 2.53125 -14.234375 C 2.914062 -14.609375 3.375 -14.910156 3.90625 -15.140625 Z M 8.671875 -14.125 C 8.242188 -14.3125 7.867188 -14.429688 7.546875 -14.484375 C 7.234375 -14.535156 6.90625 -14.5625 6.5625 -14.5625 C 6.226562 -14.5625 5.894531 -14.535156 5.5625 -14.484375 C 5.238281 -14.429688 4.863281 -14.3125 4.4375 -14.125 C 4.007812 -13.9375 3.640625 -13.691406 3.328125 -13.390625 C 3.015625 -13.085938 2.75 -12.644531 2.53125 -12.0625 C 2.320312 -11.488281 2.21875 -10.820312 2.21875 -10.0625 L 2.21875 -5.6875 C 2.21875 -4.925781 2.320312 -4.253906 2.53125 -3.671875 C 2.75 -3.085938 3.019531 -2.632812 3.34375 -2.3125 C 3.664062 -1.988281 4.035156 -1.726562 4.453125 -1.53125 C 4.867188 -1.34375 5.242188 -1.21875 5.578125 -1.15625 C 5.921875 -1.101562 6.253906 -1.078125 6.578125 -1.078125 C 6.910156 -1.078125 7.242188 -1.101562 7.578125 -1.15625 C 7.910156 -1.21875 8.285156 -1.34375 8.703125 -1.53125 C 9.117188 -1.726562 9.484375 -1.988281 9.796875 -2.3125 C 10.109375 -2.632812 10.375 -3.085938 10.59375 -3.671875 C 10.8125 -4.253906 10.921875 -4.925781 10.921875 -5.6875 L 10.921875 -10.0625 C 10.921875 -10.820312 10.804688 -11.488281 10.578125 -12.0625 C 10.359375 -12.644531 10.09375 -13.085938 9.78125 -13.390625 C 9.46875 -13.691406 9.097656 -13.9375 8.671875 -14.125 Z M 8.671875 -14.125 "/></g></g></g><g fill="#000000" fill-opacity="1"><g transform="translate(137.021895, 26.064846)"><g><path d="M 2.171875 -15.65625 L 5.234375 -15.65625 C 8.847656 -15.65625 10.65625 -14.238281 10.65625 -11.40625 C 10.65625 -10.300781 10.300781 -9.320312 9.59375 -8.46875 C 8.894531 -7.613281 7.789062 -7.1875 6.28125 -7.1875 L 6.046875 -7.1875 L 10.875 -0.828125 C 11.050781 -0.554688 11.140625 -0.390625 11.140625 -0.328125 C 11.140625 -0.109375 11.035156 0 10.828125 0 L 10.375 0 C 10.1875 0 10.046875 -0.0546875 9.953125 -0.171875 L 4.78125 -6.984375 C 4.625 -7.222656 4.546875 -7.414062 4.546875 -7.5625 C 4.546875 -8.039062 4.804688 -8.28125 5.328125 -8.28125 L 6.3125 -8.28125 C 6.9375 -8.28125 7.472656 -8.382812 7.921875 -8.59375 C 8.367188 -8.800781 8.695312 -9.066406 8.90625 -9.390625 C 9.320312 -10.035156 9.53125 -10.703125 9.53125 -11.390625 C 9.53125 -13.492188 8.09375 -14.546875 5.21875 -14.546875 L 2.34375 -14.546875 L 2.34375 -0.453125 C 2.34375 -0.328125 2.300781 -0.21875 2.21875 -0.125 C 2.144531 -0.0390625 2.039062 0 1.90625 0 L 1.671875 0 C 1.546875 0 1.441406 -0.0390625 1.359375 -0.125 C 1.273438 -0.21875 1.234375 -0.328125 1.234375 -0.453125 L 1.234375 -14.609375 C 1.234375 -15.015625 1.296875 -15.289062 1.421875 -15.4375 C 1.546875 -15.582031 1.796875 -15.65625 2.171875 -15.65625 Z M 2.171875 -15.65625 "/></g></g></g><g fill="#000000" fill-opacity="1"><g transform="translate(147.962239, 26.064846)"><g><path d="M 2.28125 -15.65625 L 10.09375 -15.65625 C 10.207031 -15.65625 10.304688 -15.609375 10.390625 -15.515625 C 10.484375 -15.429688 10.53125 -15.332031 10.53125 -15.21875 L 10.53125 -15.015625 C 10.53125 -14.878906 10.484375 -14.769531 10.390625 -14.6875 C 10.304688 -14.601562 10.207031 -14.5625 10.09375 -14.5625 L 2.5 -14.5625 L 2.5 -1.09375 L 10.09375 -1.09375 C 10.207031 -1.09375 10.304688 -1.050781 10.390625 -0.96875 C 10.484375 -0.882812 10.53125 -0.78125 10.53125 -0.65625 L 10.53125 -0.453125 C 10.53125 -0.328125 10.484375 -0.21875 10.390625 -0.125 C 10.304688 -0.0390625 10.207031 0 10.09375 0 L 2.265625 0 C 1.898438 0 1.660156 -0.078125 1.546875 -0.234375 C 1.441406 -0.390625 1.390625 -0.609375 1.390625 -0.890625 L 1.390625 -14.796875 C 1.390625 -15.085938 1.457031 -15.300781 1.59375 -15.4375 C 1.726562 -15.582031 1.957031 -15.65625 2.28125 -15.65625 Z M 3.84375 -8.6875 L 8.640625 -8.6875 C 8.773438 -8.6875 8.878906 -8.640625 8.953125 -8.546875 C 9.035156 -8.453125 9.078125 -8.347656 9.078125 -8.234375 L 9.078125 -8.03125 C 9.078125 -7.726562 8.929688 -7.578125 8.640625 -7.578125 L 3.84375 -7.578125 C 3.550781 -7.578125 3.40625 -7.726562 3.40625 -8.03125 L 3.40625 -8.234375 C 3.40625 -8.347656 3.441406 -8.453125 3.515625 -8.546875 C 3.597656 -8.640625 3.707031 -8.6875 3.84375 -8.6875 Z M 3.84375 -8.6875 "/></g></g></g><path fill="#cb6ce6" d="M 50.894531 27.007812 L 40.386719 27.007812 L 39.234375 25.847656 L 36.765625 25.847656 C 36.648438 25.671875 36.449219 25.554688 36.222656 25.554688 C 35.863281 25.554688 35.574219 25.84375 35.574219 26.203125 C 35.574219 26.5625 35.863281 26.855469 36.222656 26.855469 C 36.453125 26.855469 36.65625 26.730469 36.769531 26.546875 L 38.945312 26.546875 L 40.097656 27.707031 L 50.941406 27.707031 C 51.058594 27.867188 51.25 27.972656 51.460938 27.972656 C 51.820312 27.972656 52.109375 27.679688 52.109375 27.320312 C 52.109375 26.960938 51.820312 26.667969 51.460938 26.667969 C 51.214844 26.667969 51.003906 26.808594 50.894531 27.007812 " fill-opacity="1" fill-rule="nonzero"/><path fill="#cb6ce6" d="M 48.246094 10.78125 L 42.734375 10.78125 L 41.347656 12.175781 L 39.828125 12.175781 L 38.371094 10.710938 L 36.636719 10.710938 C 36.523438 10.523438 36.316406 10.394531 36.082031 10.394531 C 35.722656 10.394531 35.433594 10.6875 35.433594 11.046875 C 35.433594 11.40625 35.722656 11.699219 36.082031 11.699219 C 36.308594 11.699219 36.503906 11.585938 36.621094 11.410156 L 38.082031 11.410156 L 39.539062 12.875 L 41.632812 12.875 L 43.019531 11.480469 L 48.238281 11.480469 C 48.351562 11.667969 48.554688 11.792969 48.789062 11.792969 C 49.148438 11.792969 49.4375 11.5 49.4375 11.140625 C 49.4375 10.78125 49.148438 10.488281 48.789062 10.488281 C 48.5625 10.488281 48.363281 10.605469 48.246094 10.78125 " fill-opacity="1" fill-rule="nonzero"/><g clip-path="url(#0ba79ee35a)"><path fill="#cb6ce6" d="M 57.695312 22.292969 C 57.664062 21.988281 57.414062 21.746094 57.113281 21.71875 C 56.847656 21.691406 56.609375 21.832031 56.488281 22.046875 L 45.515625 22.046875 L 44.34375 20.867188 L 45.671875 19.53125 L 50.460938 19.53125 C 50.585938 19.738281 50.820312 19.867188 51.082031 19.835938 C 51.378906 19.804688 51.621094 19.5625 51.65625 19.265625 C 51.699219 18.871094 51.394531 18.539062 51.011719 18.539062 C 50.785156 18.539062 50.582031 18.65625 50.46875 18.835938 L 45.382812 18.835938 L 43.710938 20.519531 L 35.769531 20.519531 C 35.070312 20.519531 34.503906 19.949219 34.503906 19.246094 C 34.503906 18.542969 35.070312 17.972656 35.769531 17.972656 L 42.46875 17.972656 L 44.058594 16.375 L 55.96875 16.375 C 56.089844 16.542969 56.285156 16.652344 56.507812 16.648438 C 56.847656 16.640625 57.132812 16.355469 57.144531 16.015625 C 57.152344 15.648438 56.859375 15.34375 56.496094 15.34375 C 56.253906 15.34375 56.042969 15.480469 55.933594 15.675781 L 43.769531 15.675781 L 42.183594 17.273438 L 35.769531 17.273438 C 35.070312 17.273438 34.503906 16.703125 34.503906 16 C 34.503906 15.296875 35.070312 14.726562 35.769531 14.726562 L 45.480469 14.726562 L 46.980469 13.214844 L 50.773438 13.214844 C 50.898438 13.421875 51.132812 13.550781 51.394531 13.519531 C 51.691406 13.488281 51.933594 13.246094 51.96875 12.949219 C 52.011719 12.554688 51.707031 12.222656 51.324219 12.222656 C 51.097656 12.222656 50.894531 12.339844 50.78125 12.519531 L 46.691406 12.519531 L 45.191406 14.027344 L 37.382812 14.027344 C 35.792969 14.027344 34.503906 12.730469 34.503906 11.132812 C 34.503906 9.53125 35.792969 8.234375 37.382812 8.234375 L 50.875 8.234375 C 51 8.4375 51.234375 8.5625 51.496094 8.535156 C 51.792969 8.5 52.03125 8.257812 52.066406 7.960938 C 52.109375 7.566406 51.804688 7.234375 51.421875 7.234375 C 51.191406 7.234375 50.988281 7.355469 50.875 7.539062 L 34.414062 7.539062 L 33.222656 8.695312 C 33.007812 8.902344 32.730469 9.007812 32.457031 9.007812 L 32.457031 32.296875 C 32.847656 32.296875 33.238281 32.167969 33.558594 31.910156 C 34.332031 31.289062 35.292969 30.953125 36.28125 30.953125 L 50.914062 30.953125 C 51.042969 31.152344 51.277344 31.28125 51.535156 31.25 C 51.832031 31.21875 52.074219 30.976562 52.105469 30.679688 C 52.148438 30.285156 51.84375 29.953125 51.460938 29.953125 C 51.230469 29.953125 51.03125 30.074219 50.914062 30.253906 L 37.382812 30.253906 C 35.792969 30.253906 34.503906 28.957031 34.503906 27.359375 C 34.503906 25.757812 35.792969 24.460938 37.382812 24.460938 L 43.246094 24.460938 L 44.792969 26.019531 L 48.71875 26.019531 L 50.28125 24.449219 L 53.820312 24.449219 C 53.945312 24.644531 54.179688 24.769531 54.4375 24.738281 C 54.734375 24.707031 54.972656 24.464844 55.003906 24.167969 C 55.046875 23.773438 54.742188 23.441406 54.359375 23.441406 C 54.128906 23.441406 53.925781 23.566406 53.808594 23.75 L 49.992188 23.75 L 48.429688 25.320312 L 45.082031 25.320312 L 43.535156 23.765625 L 35.769531 23.765625 C 35.070312 23.765625 34.503906 23.195312 34.503906 22.492188 C 34.503906 21.789062 35.070312 21.21875 35.769531 21.21875 L 43.710938 21.21875 L 45.226562 22.742188 L 56.523438 22.742188 C 56.640625 22.910156 56.832031 23.015625 57.050781 23.015625 C 57.433594 23.015625 57.738281 22.683594 57.695312 22.292969 " fill-opacity="1" fill-rule="nonzero"/></g><path fill="#8c52ff" d="M 12.417969 18.492188 L 8.597656 18.492188 L 8.597656 14.652344 L 12.417969 14.652344 L 12.417969 18.492188 " fill-opacity="1" fill-rule="nonzero"/><g clip-path="url(#0943006f59)"><path fill="#8c52ff" d="M 7.839844 14.007812 L 4.449219 14.007812 L 4.449219 10.597656 L 7.839844 10.597656 L 7.839844 14.007812 " fill-opacity="1" fill-rule="nonzero"/></g><path fill="#8c52ff" d="M 12.417969 9.917969 L 9.882812 9.917969 L 9.882812 7.371094 L 12.417969 7.371094 L 12.417969 9.917969 " fill-opacity="1" fill-rule="nonzero"/><path fill="#8c52ff" d="M 12.417969 24.132812 L 9.882812 24.132812 L 9.882812 21.585938 L 12.417969 21.585938 L 12.417969 24.132812 " fill-opacity="1" fill-rule="nonzero"/><g clip-path="url(#d34f6182e1)"><path fill="#8c52ff" d="M 27.292969 24.132812 L 24.757812 24.132812 L 24.757812 21.585938 L 27.292969 21.585938 Z M 24.691406 19.765625 L 20.871094 19.765625 L 20.871094 15.925781 L 24.691406 15.925781 Z M 20.164062 14.792969 L 17.632812 14.792969 L 17.632812 12.246094 L 20.164062 12.246094 Z M 19.148438 22.3125 L 16.613281 22.3125 L 16.613281 19.765625 L 19.148438 19.765625 Z M 22.226562 8.644531 L 24.757812 8.644531 L 24.757812 11.191406 L 22.226562 11.191406 Z M 31.691406 8.695312 C 31.691406 8.695312 23.492188 4.9375 14.527344 8.882812 L 14.527344 15.300781 L 16.613281 15.300781 L 16.613281 17.847656 L 14.527344 17.847656 L 14.527344 24.132812 L 17.253906 24.132812 L 17.253906 27.972656 L 14.527344 27.972656 L 14.527344 32.296875 C 20.976562 29.035156 30.578125 31.289062 31.351562 31.910156 C 31.675781 32.167969 32.066406 32.296875 32.457031 32.296875 L 32.457031 9.007812 C 32.179688 9.007812 31.902344 8.902344 31.691406 8.695312 " fill-opacity="1" fill-rule="nonzero"/></g></svg>