<svg xmlns="http://www.w3.org/2000/svg" xmlns:xlink="http://www.w3.org/1999/xlink" width="230" zoomAndPan="magnify" viewBox="0 0 172.5 44.999999" height="60" preserveAspectRatio="xMidYMid meet" version="1.0"><defs><g/><clipPath id="fa2a321aaa"><path d="M 4.5 4.566406 L 35.25 4.566406 L 35.25 35 L 4.5 35 Z M 4.5 4.566406 " clip-rule="nonzero"/></clipPath><clipPath id="0a70f686a5"><path d="M 14 31 L 25 31 L 25 40.566406 L 14 40.566406 Z M 14 31 " clip-rule="nonzero"/></clipPath></defs><g clip-path="url(#fa2a321aaa)"><path fill="#000000" d="M 9.421875 34.386719 L 9.421875 16.476562 L 19.875 10.390625 L 30.328125 16.476562 L 30.328125 28.652344 L 24.796875 31.871094 L 29.71875 34.742188 L 35.25 31.519531 L 35.25 13.613281 L 27.5625 9.132812 L 19.875 4.65625 L 12.1875 9.132812 L 4.5 13.613281 L 4.5 31.519531 Z M 9.421875 34.386719 " fill-opacity="1" fill-rule="evenodd"/></g><g clip-path="url(#0a70f686a5)"><path fill="#cd0c0c" d="M 14.34375 31.519531 L 14.34375 37.253906 L 19.875 40.472656 L 24.796875 37.609375 L 19.875 34.742188 Z M 14.34375 31.519531 " fill-opacity="1" fill-rule="evenodd"/></g><path fill="#cd0c0c" d="M 14.34375 25.785156 L 18.359375 28.125 L 19.875 29.007812 L 25.40625 25.785156 L 25.40625 19.34375 L 19.875 16.125 L 14.34375 19.34375 Z M 14.34375 25.785156 " fill-opacity="1" fill-rule="evenodd"/><path fill="#ff5757" d="M 19.875 22.566406 L 25.40625 19.34375 L 19.875 16.125 L 14.34375 19.34375 Z M 19.875 22.566406 " fill-opacity="1" fill-rule="evenodd"/><path fill="#9a2828" d="M 25.40625 19.34375 L 19.875 22.566406 L 19.875 29.007812 L 25.40625 25.785156 Z M 25.40625 19.34375 " fill-opacity="1" fill-rule="evenodd"/><g fill="#000000" fill-opacity="1"><g transform="translate(39.857685, 25.849742)"><g><path d="M 0.984375 -8.625 C 1.578125 -8.695312 2.191406 -8.734375 2.828125 -8.734375 C 3.992188 -8.734375 4.878906 -8.457031 5.484375 -7.90625 C 6.097656 -7.363281 6.40625 -6.546875 6.40625 -5.453125 C 6.40625 -4.472656 6.070312 -3.703125 5.40625 -3.140625 C 4.78125 -2.609375 3.976562 -2.34375 3 -2.34375 C 2.882812 -2.34375 2.757812 -2.347656 2.625 -2.359375 L 2.625 0 L 0.984375 0 Z M 3.015625 -7.1875 C 2.890625 -7.1875 2.757812 -7.179688 2.625 -7.171875 L 2.625 -3.78125 C 2.769531 -3.757812 2.941406 -3.75 3.140625 -3.75 C 3.335938 -3.75 3.539062 -3.789062 3.75 -3.875 C 3.96875 -3.957031 4.148438 -4.078125 4.296875 -4.234375 C 4.597656 -4.546875 4.75 -4.957031 4.75 -5.46875 C 4.75 -6.613281 4.171875 -7.1875 3.015625 -7.1875 Z M 3.015625 -7.1875 "/></g></g></g><g fill="#000000" fill-opacity="1"><g transform="translate(50.383361, 25.849742)"><g><path d="M 1.796875 -1.015625 C 1.410156 -1.390625 1.101562 -1.835938 0.875 -2.359375 C 0.65625 -2.890625 0.546875 -3.46875 0.546875 -4.09375 C 0.546875 -4.71875 0.648438 -5.304688 0.859375 -5.859375 C 1.078125 -6.421875 1.378906 -6.914062 1.765625 -7.34375 C 2.160156 -7.769531 2.632812 -8.109375 3.1875 -8.359375 C 3.738281 -8.609375 4.359375 -8.734375 5.046875 -8.734375 C 6.234375 -8.734375 7.234375 -8.359375 8.046875 -7.609375 C 8.910156 -6.816406 9.34375 -5.738281 9.34375 -4.375 C 9.34375 -3.0625 8.894531 -1.96875 8 -1.09375 C 7.457031 -0.5625 6.804688 -0.191406 6.046875 0.015625 C 5.671875 0.109375 5.234375 0.15625 4.734375 0.15625 C 4.234375 0.15625 3.71875 0.0546875 3.1875 -0.140625 C 2.65625 -0.347656 2.191406 -0.640625 1.796875 -1.015625 Z M 2.34375 -4.171875 C 2.34375 -3.773438 2.40625 -3.410156 2.53125 -3.078125 C 2.664062 -2.742188 2.851562 -2.457031 3.09375 -2.21875 C 3.59375 -1.707031 4.238281 -1.453125 5.03125 -1.453125 C 5.78125 -1.453125 6.382812 -1.691406 6.84375 -2.171875 C 7.3125 -2.679688 7.546875 -3.367188 7.546875 -4.234375 C 7.546875 -5.046875 7.320312 -5.726562 6.875 -6.28125 C 6.394531 -6.863281 5.742188 -7.15625 4.921875 -7.15625 C 4.117188 -7.15625 3.476562 -6.859375 3 -6.265625 C 2.5625 -5.710938 2.34375 -5.015625 2.34375 -4.171875 Z M 2.34375 -4.171875 "/></g></g></g><g fill="#000000" fill-opacity="1"><g transform="translate(64.191091, 25.849742)"><g><path d="M 4.171875 0.03125 C 4.046875 0.0078125 3.828125 0 3.515625 0 L 2.765625 0 C 2.617188 0 2.5 0.00390625 2.40625 0.015625 L 2.40625 0 C 2.425781 -0.03125 2.4375 -0.0625 2.4375 -0.09375 C 2.4375 -0.132812 2.429688 -0.175781 2.421875 -0.21875 C 2.410156 -0.269531 2.390625 -0.347656 2.359375 -0.453125 C 2.335938 -0.566406 2.300781 -0.726562 2.25 -0.9375 L 0.046875 -8.59375 C 0.328125 -8.582031 0.660156 -8.578125 1.046875 -8.578125 C 1.441406 -8.578125 1.695312 -8.59375 1.8125 -8.625 L 3.328125 -2.796875 L 4.8125 -8.59375 C 4.875 -8.59375 4.929688 -8.59375 4.984375 -8.59375 L 5.125 -8.59375 C 5.269531 -8.582031 5.445312 -8.578125 5.65625 -8.578125 C 5.875 -8.578125 6.097656 -8.59375 6.328125 -8.625 L 7.84375 -2.796875 L 9.140625 -8.59375 C 9.390625 -8.582031 9.722656 -8.578125 10.140625 -8.578125 C 10.554688 -8.578125 10.8125 -8.59375 10.90625 -8.625 L 9.046875 -1.828125 C 8.816406 -1.046875 8.691406 -0.582031 8.671875 -0.4375 C 8.660156 -0.289062 8.65625 -0.1875 8.65625 -0.125 C 8.65625 -0.0703125 8.664062 -0.03125 8.6875 0 L 8.671875 0.03125 C 8.535156 0.0078125 8.316406 0 8.015625 0 C 7.765625 0 7.53125 0 7.3125 0 C 7.101562 0 6.953125 0.00390625 6.859375 0.015625 L 6.859375 0 C 6.867188 -0.03125 6.875 -0.0625 6.875 -0.09375 C 6.875 -0.132812 6.867188 -0.175781 6.859375 -0.21875 C 6.859375 -0.257812 6.847656 -0.332031 6.828125 -0.4375 C 6.816406 -0.550781 6.789062 -0.710938 6.75 -0.921875 L 6.5625 -1.8125 L 5.515625 -5.828125 L 4.5 -1.828125 C 4.300781 -1.003906 4.195312 -0.53125 4.1875 -0.40625 C 4.164062 -0.164062 4.164062 -0.03125 4.1875 0 Z M 4.171875 0.03125 "/></g></g></g><g fill="#000000" fill-opacity="1"><g transform="translate(79.127225, 25.849742)"><g><path d="M 5.421875 -1.546875 C 5.691406 -1.546875 5.875 -1.570312 5.96875 -1.625 L 6 -1.625 L 5.9375 0 L 1.109375 0 L 1.109375 -8.625 C 1.222656 -8.613281 1.351562 -8.601562 1.5 -8.59375 L 1.953125 -8.59375 C 2.242188 -8.582031 2.566406 -8.578125 2.921875 -8.578125 C 3.910156 -8.578125 4.882812 -8.59375 5.84375 -8.625 C 5.800781 -8.25 5.78125 -7.742188 5.78125 -7.109375 C 5.78125 -7.035156 5.785156 -6.984375 5.796875 -6.953125 L 5.78125 -6.9375 C 5.550781 -7 5.234375 -7.03125 4.828125 -7.03125 L 2.796875 -7.03125 L 2.796875 -5.390625 L 4.3125 -5.390625 C 4.789062 -5.390625 5.078125 -5.398438 5.171875 -5.421875 L 5.1875 -3.828125 C 4.976562 -3.859375 4.710938 -3.875 4.390625 -3.875 L 2.796875 -3.875 L 2.796875 -1.546875 Z M 5.421875 -1.546875 "/></g></g></g><g fill="#000000" fill-opacity="1"><g transform="translate(89.6529, 25.849742)"><g><path d="M 3.875 -3.328125 C 3.75 -3.316406 3.613281 -3.3125 3.46875 -3.3125 C 3.320312 -3.3125 3.101562 -3.328125 2.8125 -3.359375 L 2.8125 0 L 1.109375 0 L 1.109375 -8.625 C 1.710938 -8.695312 2.453125 -8.734375 3.328125 -8.734375 C 4.523438 -8.734375 5.414062 -8.507812 6 -8.0625 C 6.582031 -7.625 6.875 -6.945312 6.875 -6.03125 C 6.875 -5.320312 6.609375 -4.710938 6.078125 -4.203125 C 5.898438 -4.035156 5.695312 -3.894531 5.46875 -3.78125 L 6.78125 -1 C 7.039062 -0.425781 7.238281 -0.0859375 7.375 0.015625 L 7.34375 0.046875 C 6.925781 -0.0234375 6.269531 -0.0234375 5.375 0.046875 Z M 3.453125 -7.21875 C 3.234375 -7.21875 3.019531 -7.207031 2.8125 -7.1875 L 2.8125 -4.71875 C 3.03125 -4.6875 3.28125 -4.671875 3.5625 -4.671875 C 3.84375 -4.671875 4.078125 -4.695312 4.265625 -4.75 C 4.460938 -4.800781 4.632812 -4.878906 4.78125 -4.984375 C 5.082031 -5.203125 5.234375 -5.539062 5.234375 -6 C 5.234375 -6.457031 5.070312 -6.78125 4.75 -6.96875 C 4.457031 -7.132812 4.023438 -7.21875 3.453125 -7.21875 Z M 3.453125 -7.21875 "/></g></g></g><g fill="#000000" fill-opacity="1"><g transform="translate(101.255401, 25.849742)"><g/></g></g><g fill="#000000" fill-opacity="1"><g transform="translate(109.543609, 25.849742)"><g><path d="M 6.515625 -0.625 C 6.203125 -0.375 5.796875 -0.179688 5.296875 -0.046875 C 4.796875 0.0859375 4.175781 0.15625 3.4375 0.15625 C 2.707031 0.15625 1.929688 0.09375 1.109375 -0.03125 L 1.109375 -8.53125 C 1.941406 -8.664062 2.664062 -8.734375 3.28125 -8.734375 C 3.894531 -8.734375 4.394531 -8.675781 4.78125 -8.5625 C 5.175781 -8.445312 5.5 -8.289062 5.75 -8.09375 C 6.238281 -7.707031 6.484375 -7.207031 6.484375 -6.59375 C 6.484375 -5.988281 6.265625 -5.488281 5.828125 -5.09375 C 6.347656 -4.925781 6.753906 -4.617188 7.046875 -4.171875 C 7.304688 -3.753906 7.4375 -3.296875 7.4375 -2.796875 C 7.4375 -2.304688 7.363281 -1.882812 7.21875 -1.53125 C 7.070312 -1.175781 6.835938 -0.875 6.515625 -0.625 Z M 2.8125 -5.328125 C 3 -5.296875 3.226562 -5.28125 3.5 -5.28125 C 3.769531 -5.28125 3.988281 -5.316406 4.15625 -5.390625 C 4.332031 -5.460938 4.46875 -5.550781 4.5625 -5.65625 C 4.71875 -5.832031 4.796875 -6.078125 4.796875 -6.390625 C 4.796875 -7.046875 4.410156 -7.375 3.640625 -7.375 C 3.304688 -7.375 3.03125 -7.363281 2.8125 -7.34375 Z M 3.765625 -3.953125 C 3.410156 -3.953125 3.09375 -3.925781 2.8125 -3.875 L 2.8125 -1.34375 C 3.113281 -1.269531 3.429688 -1.234375 3.765625 -1.234375 C 4.097656 -1.234375 4.390625 -1.269531 4.640625 -1.34375 C 4.890625 -1.425781 5.101562 -1.535156 5.28125 -1.671875 C 5.625 -1.960938 5.796875 -2.328125 5.796875 -2.765625 C 5.796875 -3.554688 5.117188 -3.953125 3.765625 -3.953125 Z M 3.765625 -3.953125 "/></g></g></g><g fill="#000000" fill-opacity="1"><g transform="translate(121.171902, 25.849742)"><g><path d="M 2.359375 0 C 1.734375 0 1.316406 0.0078125 1.109375 0.03125 L 1.109375 -8.609375 C 1.210938 -8.585938 1.425781 -8.578125 1.75 -8.578125 C 2.070312 -8.578125 2.445312 -8.582031 2.875 -8.59375 L 2.875 -1.546875 L 4.21875 -1.546875 C 4.601562 -1.546875 4.910156 -1.554688 5.140625 -1.578125 C 5.109375 -0.578125 5.09375 -0.0546875 5.09375 -0.015625 L 5.09375 0.046875 C 4.675781 0.015625 3.972656 0 2.984375 0 Z M 2.359375 0 "/></g></g></g><g fill="#000000" fill-opacity="1"><g transform="translate(130.59497, 25.849742)"><g><path d="M 1.796875 -1.015625 C 1.410156 -1.390625 1.101562 -1.835938 0.875 -2.359375 C 0.65625 -2.890625 0.546875 -3.46875 0.546875 -4.09375 C 0.546875 -4.71875 0.648438 -5.304688 0.859375 -5.859375 C 1.078125 -6.421875 1.378906 -6.914062 1.765625 -7.34375 C 2.160156 -7.769531 2.632812 -8.109375 3.1875 -8.359375 C 3.738281 -8.609375 4.359375 -8.734375 5.046875 -8.734375 C 6.234375 -8.734375 7.234375 -8.359375 8.046875 -7.609375 C 8.910156 -6.816406 9.34375 -5.738281 9.34375 -4.375 C 9.34375 -3.0625 8.894531 -1.96875 8 -1.09375 C 7.457031 -0.5625 6.804688 -0.191406 6.046875 0.015625 C 5.671875 0.109375 5.234375 0.15625 4.734375 0.15625 C 4.234375 0.15625 3.71875 0.0546875 3.1875 -0.140625 C 2.65625 -0.347656 2.191406 -0.640625 1.796875 -1.015625 Z M 2.34375 -4.171875 C 2.34375 -3.773438 2.40625 -3.410156 2.53125 -3.078125 C 2.664062 -2.742188 2.851562 -2.457031 3.09375 -2.21875 C 3.59375 -1.707031 4.238281 -1.453125 5.03125 -1.453125 C 5.78125 -1.453125 6.382812 -1.691406 6.84375 -2.171875 C 7.3125 -2.679688 7.546875 -3.367188 7.546875 -4.234375 C 7.546875 -5.046875 7.320312 -5.726562 6.875 -6.28125 C 6.394531 -6.863281 5.742188 -7.15625 4.921875 -7.15625 C 4.117188 -7.15625 3.476562 -6.859375 3 -6.265625 C 2.5625 -5.710938 2.34375 -5.015625 2.34375 -4.171875 Z M 2.34375 -4.171875 "/></g></g></g><g fill="#000000" fill-opacity="1"><g transform="translate(144.402705, 25.849742)"><g><path d="M 4.953125 -8.734375 C 5.753906 -8.734375 6.4375 -8.59375 7 -8.3125 L 7 -6.328125 C 6.757812 -6.703125 6.25 -6.945312 5.46875 -7.0625 C 5.238281 -7.101562 4.953125 -7.125 4.609375 -7.125 C 4.265625 -7.125 3.921875 -7.054688 3.578125 -6.921875 C 3.242188 -6.796875 2.972656 -6.613281 2.765625 -6.375 C 2.347656 -5.90625 2.140625 -5.234375 2.140625 -4.359375 C 2.140625 -3.347656 2.398438 -2.597656 2.921875 -2.109375 C 3.359375 -1.691406 3.941406 -1.484375 4.671875 -1.484375 C 5.484375 -1.484375 6.144531 -1.660156 6.65625 -2.015625 C 6.84375 -2.140625 7 -2.289062 7.125 -2.46875 L 7.140625 -2.46875 L 7.140625 -0.65625 C 6.484375 -0.113281 5.597656 0.15625 4.484375 0.15625 C 3.171875 0.15625 2.144531 -0.257812 1.40625 -1.09375 C 0.6875 -1.882812 0.328125 -2.9375 0.328125 -4.25 C 0.328125 -5.632812 0.722656 -6.726562 1.515625 -7.53125 C 2.296875 -8.332031 3.441406 -8.734375 4.953125 -8.734375 Z M 4.953125 -8.734375 "/></g></g></g><g fill="#000000" fill-opacity="1"><g transform="translate(155.972967, 25.849742)"><g><path d="M 2.75 0.03125 C 2.457031 0.0078125 2.082031 0 1.625 0 L 1.109375 0 L 1.109375 -8.59375 L 1.359375 -8.59375 C 1.546875 -8.582031 1.679688 -8.578125 1.765625 -8.578125 L 1.953125 -8.578125 C 2.335938 -8.578125 2.601562 -8.59375 2.75 -8.625 L 2.75 -4.984375 L 5.359375 -8.59375 C 5.640625 -8.582031 5.875 -8.578125 6.0625 -8.578125 L 6.421875 -8.578125 C 6.859375 -8.578125 7.171875 -8.59375 7.359375 -8.625 L 4.875 -5.375 L 7.328125 -0.515625 C 7.429688 -0.273438 7.523438 -0.101562 7.609375 0 L 7.21875 0 C 6.3125 0 5.75 0.015625 5.53125 0.046875 C 5.476562 -0.234375 5.410156 -0.484375 5.328125 -0.703125 L 3.6875 -3.828125 L 2.75 -2.609375 Z M 2.75 0.03125 "/></g></g></g></svg>