<svg xmlns="http://www.w3.org/2000/svg" xmlns:xlink="http://www.w3.org/1999/xlink" width="500" zoomAndPan="magnify" viewBox="0 0 375 374.999991" height="500" preserveAspectRatio="xMidYMid meet" version="1.0"><defs><clipPath id="8533d92da5"><path d="M 58.246094 38 L 316.996094 38 L 316.996094 289 L 58.246094 289 Z M 58.246094 38 " clip-rule="nonzero"/></clipPath></defs><g clip-path="url(#8533d92da5)"><path fill="#000000" d="M 99.660156 286.007812 L 99.660156 136.765625 L 187.621094 86.035156 L 275.578125 136.765625 L 275.578125 238.234375 L 229.035156 265.0625 L 270.449219 288.964844 L 316.996094 262.136719 L 316.996094 112.894531 L 252.292969 75.5625 L 187.621094 38.261719 L 122.917969 75.5625 L 58.246094 112.894531 L 58.246094 262.136719 Z M 99.660156 286.007812 " fill-opacity="1" fill-rule="evenodd"/></g><path fill="#cd0c0c" d="M 141.074219 262.136719 L 141.074219 309.910156 L 187.621094 336.738281 L 229.035156 312.867188 L 187.621094 288.964844 Z M 141.074219 262.136719 " fill-opacity="1" fill-rule="evenodd"/><path fill="#cd0c0c" d="M 141.074219 214.332031 L 174.875 233.839844 L 187.621094 241.191406 L 234.164062 214.332031 L 234.164062 160.667969 L 187.621094 133.839844 L 141.074219 160.667969 Z M 141.074219 214.332031 " fill-opacity="1" fill-rule="evenodd"/><path fill="#ff5757" d="M 187.621094 187.5 L 234.164062 160.667969 L 187.621094 133.839844 L 141.074219 160.667969 Z M 187.621094 187.5 " fill-opacity="1" fill-rule="evenodd"/><path fill="#9a2828" d="M 234.164062 160.667969 L 187.621094 187.5 L 187.621094 241.191406 L 234.164062 214.332031 Z M 234.164062 160.667969 " fill-opacity="1" fill-rule="evenodd"/></svg>